<svg xmlns="http://www.w3.org/2000/svg" xmlns:xlink="http://www.w3.org/1999/xlink" width="816" zoomAndPan="magnify" viewBox="0 0 612 791.999994" height="100%" preserveAspectRatio="xMidYMid meet" version="1.0">
  <defs>
    <clipPath id="15495023fa">
      <path d="M 0 43 L 126 43 L 126 92 L 0 92 Z M 0 43 " clip-rule="nonzero" />
    </clipPath>
    <clipPath id="4f7281c457">
      <path d="M 157.6875 35.292969 L 108.839844 148.996094 L -35.183594 87.125 L 13.664062 -26.578125 Z M 157.6875 35.292969 " clip-rule="nonzero" />
    </clipPath>
    <clipPath id="ade552b8de">
      <path d="M 157.6875 35.292969 L 108.839844 148.996094 L -35.183594 87.125 L 13.664062 -26.578125 Z M 157.6875 35.292969 " clip-rule="nonzero" />
    </clipPath>
    <clipPath id="f92d110cfd">
      <path d="M 127.089844 52.632812 L 89.082031 141.105469 L -25.125 92.042969 L 12.882812 3.570312 Z M 127.089844 52.632812 " clip-rule="nonzero" />
    </clipPath>
    <clipPath id="1eee12dcb2">
      <path d="M 127.089844 52.632812 L 89.316406 140.558594 L -24.890625 91.496094 L 12.882812 3.570312 Z M 127.089844 52.632812 " clip-rule="nonzero" />
    </clipPath>
    <clipPath id="a826cd2dd2">
      <path d="M 112 42 L 147 42 L 147 63 L 112 63 Z M 112 42 " clip-rule="nonzero" />
    </clipPath>
    <clipPath id="e93eba9b69">
      <path d="M 157.6875 35.292969 L 108.839844 148.996094 L -35.183594 87.125 L 13.664062 -26.578125 Z M 157.6875 35.292969 " clip-rule="nonzero" />
    </clipPath>
    <clipPath id="4f30a5e9e1">
      <path d="M 157.6875 35.292969 L 108.839844 148.996094 L -35.183594 87.125 L 13.664062 -26.578125 Z M 157.6875 35.292969 " clip-rule="nonzero" />
    </clipPath>
    <clipPath id="a6ef5206c7">
      <path d="M 98 27 L 129 27 L 129 48 L 98 48 Z M 98 27 " clip-rule="nonzero" />
    </clipPath>
    <clipPath id="58c9af229b">
      <path d="M 157.6875 35.292969 L 108.839844 148.996094 L -35.183594 87.125 L 13.664062 -26.578125 Z M 157.6875 35.292969 " clip-rule="nonzero" />
    </clipPath>
    <clipPath id="69edd11d24">
      <path d="M 157.6875 35.292969 L 108.839844 148.996094 L -35.183594 87.125 L 13.664062 -26.578125 Z M 157.6875 35.292969 " clip-rule="nonzero" />
    </clipPath>
    <clipPath id="d4f1cb10b0">
      <path d="M 53 48 L 101 48 L 101 103 L 53 103 Z M 53 48 " clip-rule="nonzero" />
    </clipPath>
    <clipPath id="77c569c05d">
      <path d="M 157.6875 35.292969 L 108.839844 148.996094 L -35.183594 87.125 L 13.664062 -26.578125 Z M 157.6875 35.292969 " clip-rule="nonzero" />
    </clipPath>
    <clipPath id="d3b17133b6">
      <path d="M 157.6875 35.292969 L 108.839844 148.996094 L -35.183594 87.125 L 13.664062 -26.578125 Z M 157.6875 35.292969 " clip-rule="nonzero" />
    </clipPath>
    <clipPath id="b061ff700f">
      <path d="M 78 54 L 106 54 L 106 66 L 78 66 Z M 78 54 " clip-rule="nonzero" />
    </clipPath>
    <clipPath id="a6d1c63c71">
      <path d="M 157.6875 35.292969 L 108.839844 148.996094 L -35.183594 87.125 L 13.664062 -26.578125 Z M 157.6875 35.292969 " clip-rule="nonzero" />
    </clipPath>
    <clipPath id="7e7a5e8432">
      <path d="M 157.6875 35.292969 L 108.839844 148.996094 L -35.183594 87.125 L 13.664062 -26.578125 Z M 157.6875 35.292969 " clip-rule="nonzero" />
    </clipPath>
    <clipPath id="6353f105f1">
      <path d="M 66 52 L 78 52 L 78 81 L 66 81 Z M 66 52 " clip-rule="nonzero" />
    </clipPath>
    <clipPath id="2405deeb33">
      <path d="M 157.6875 35.292969 L 108.839844 148.996094 L -35.183594 87.125 L 13.664062 -26.578125 Z M 157.6875 35.292969 " clip-rule="nonzero" />
    </clipPath>
    <clipPath id="a24dd5be87">
      <path d="M 157.6875 35.292969 L 108.839844 148.996094 L -35.183594 87.125 L 13.664062 -26.578125 Z M 157.6875 35.292969 " clip-rule="nonzero" />
    </clipPath>
    <clipPath id="83e2454d59">
      <path d="M 84 66 L 93 66 L 93 89 L 84 89 Z M 84 66 " clip-rule="nonzero" />
    </clipPath>
    <clipPath id="3ebd7ed255">
      <path d="M 157.6875 35.292969 L 108.839844 148.996094 L -35.183594 87.125 L 13.664062 -26.578125 Z M 157.6875 35.292969 " clip-rule="nonzero" />
    </clipPath>
    <clipPath id="166b68a95c">
      <path d="M 157.6875 35.292969 L 108.839844 148.996094 L -35.183594 87.125 L 13.664062 -26.578125 Z M 157.6875 35.292969 " clip-rule="nonzero" />
    </clipPath>
    <clipPath id="e728847bda">
      <path d="M 81 58 L 93 58 L 93 62 L 81 62 Z M 81 58 " clip-rule="nonzero" />
    </clipPath>
    <clipPath id="3eaae40ddf">
      <path d="M 157.6875 35.292969 L 108.839844 148.996094 L -35.183594 87.125 L 13.664062 -26.578125 Z M 157.6875 35.292969 " clip-rule="nonzero" />
    </clipPath>
    <clipPath id="0b5dc999da">
      <path d="M 157.6875 35.292969 L 108.839844 148.996094 L -35.183594 87.125 L 13.664062 -26.578125 Z M 157.6875 35.292969 " clip-rule="nonzero" />
    </clipPath>
    <clipPath id="b7a5727707">
      <path d="M 69 53 L 74 53 L 74 71 L 69 71 Z M 69 53 " clip-rule="nonzero" />
    </clipPath>
    <clipPath id="fc061e76a9">
      <path d="M 157.6875 35.292969 L 108.839844 148.996094 L -35.183594 87.125 L 13.664062 -26.578125 Z M 157.6875 35.292969 " clip-rule="nonzero" />
    </clipPath>
    <clipPath id="9d258d974b">
      <path d="M 157.6875 35.292969 L 108.839844 148.996094 L -35.183594 87.125 L 13.664062 -26.578125 Z M 157.6875 35.292969 " clip-rule="nonzero" />
    </clipPath>
    <clipPath id="1434b04d93">
      <path d="M 52 14 L 115 14 L 115 49 L 52 49 Z M 52 14 " clip-rule="nonzero" />
    </clipPath>
    <clipPath id="f11c2d01e1">
      <path d="M 157.6875 35.292969 L 108.839844 148.996094 L -35.183594 87.125 L 13.664062 -26.578125 Z M 157.6875 35.292969 " clip-rule="nonzero" />
    </clipPath>
    <clipPath id="004ffd2998">
      <path d="M 157.6875 35.292969 L 108.839844 148.996094 L -35.183594 87.125 L 13.664062 -26.578125 Z M 157.6875 35.292969 " clip-rule="nonzero" />
    </clipPath>
    <clipPath id="5c13d0ed63">
      <path d="M 62 4 L 74 4 L 74 35 L 62 35 Z M 62 4 " clip-rule="nonzero" />
    </clipPath>
    <clipPath id="913786a3d6">
      <path d="M 157.6875 35.292969 L 108.839844 148.996094 L -35.183594 87.125 L 13.664062 -26.578125 Z M 157.6875 35.292969 " clip-rule="nonzero" />
    </clipPath>
    <clipPath id="6c363020c0">
      <path d="M 157.6875 35.292969 L 108.839844 148.996094 L -35.183594 87.125 L 13.664062 -26.578125 Z M 157.6875 35.292969 " clip-rule="nonzero" />
    </clipPath>
    <clipPath id="07b5f608c5">
      <path d="M 75 17 L 112 17 L 112 27 L 75 27 Z M 75 17 " clip-rule="nonzero" />
    </clipPath>
    <clipPath id="df29d24829">
      <path d="M 157.6875 35.292969 L 108.839844 148.996094 L -35.183594 87.125 L 13.664062 -26.578125 Z M 157.6875 35.292969 " clip-rule="nonzero" />
    </clipPath>
    <clipPath id="724084536e">
      <path d="M 157.6875 35.292969 L 108.839844 148.996094 L -35.183594 87.125 L 13.664062 -26.578125 Z M 157.6875 35.292969 " clip-rule="nonzero" />
    </clipPath>
    <clipPath id="2ea27511cc">
      <path d="M 66 31 L 97 31 L 97 41 L 66 41 Z M 66 31 " clip-rule="nonzero" />
    </clipPath>
    <clipPath id="a111fab7a3">
      <path d="M 157.6875 35.292969 L 108.839844 148.996094 L -35.183594 87.125 L 13.664062 -26.578125 Z M 157.6875 35.292969 " clip-rule="nonzero" />
    </clipPath>
    <clipPath id="b9676207c6">
      <path d="M 157.6875 35.292969 L 108.839844 148.996094 L -35.183594 87.125 L 13.664062 -26.578125 Z M 157.6875 35.292969 " clip-rule="nonzero" />
    </clipPath>
    <clipPath id="2719fb9906">
      <path d="M 68 34 L 93 34 L 93 38 L 68 38 Z M 68 34 " clip-rule="nonzero" />
    </clipPath>
    <clipPath id="37d5dc1ad6">
      <path d="M 157.6875 35.292969 L 108.839844 148.996094 L -35.183594 87.125 L 13.664062 -26.578125 Z M 157.6875 35.292969 " clip-rule="nonzero" />
    </clipPath>
    <clipPath id="1c151277bc">
      <path d="M 157.6875 35.292969 L 108.839844 148.996094 L -35.183594 87.125 L 13.664062 -26.578125 Z M 157.6875 35.292969 " clip-rule="nonzero" />
    </clipPath>
    <clipPath id="f9ba6bcb33">
      <path d="M 0 19 L 52 19 L 52 74 L 0 74 Z M 0 19 " clip-rule="nonzero" />
    </clipPath>
    <clipPath id="bc71c27a3b">
      <path d="M 157.6875 35.292969 L 108.839844 148.996094 L -35.183594 87.125 L 13.664062 -26.578125 Z M 157.6875 35.292969 " clip-rule="nonzero" />
    </clipPath>
    <clipPath id="6c4053377b">
      <path d="M 157.6875 35.292969 L 108.839844 148.996094 L -35.183594 87.125 L 13.664062 -26.578125 Z M 157.6875 35.292969 " clip-rule="nonzero" />
    </clipPath>
    <clipPath id="e5b9184c5f">
      <path d="M 2 12 L 6 12 L 6 58 L 2 58 Z M 2 12 " clip-rule="nonzero" />
    </clipPath>
    <clipPath id="bf86d5ea8e">
      <path d="M 157.6875 35.292969 L 108.839844 148.996094 L -35.183594 87.125 L 13.664062 -26.578125 Z M 157.6875 35.292969 " clip-rule="nonzero" />
    </clipPath>
    <clipPath id="75a38d3147">
      <path d="M 157.6875 35.292969 L 108.839844 148.996094 L -35.183594 87.125 L 13.664062 -26.578125 Z M 157.6875 35.292969 " clip-rule="nonzero" />
    </clipPath>
    <clipPath id="0000e1aa5b">
      <path d="M 0 0 L 10 0 L 10 47 L 0 47 Z M 0 0 " clip-rule="nonzero" />
    </clipPath>
    <clipPath id="afbd260bc1">
      <path d="M 157.6875 35.292969 L 108.839844 148.996094 L -35.183594 87.125 L 13.664062 -26.578125 Z M 157.6875 35.292969 " clip-rule="nonzero" />
    </clipPath>
    <clipPath id="e7a8dfbeff">
      <path d="M 157.6875 35.292969 L 108.839844 148.996094 L -35.183594 87.125 L 13.664062 -26.578125 Z M 157.6875 35.292969 " clip-rule="nonzero" />
    </clipPath>
    <clipPath id="303a7b1e15">
      <path d="M 24.140625 8.410156 L 6.867188 48.621094 L -15.652344 38.949219 L 1.621094 -1.265625 Z M 24.140625 8.410156 " clip-rule="nonzero" />
    </clipPath>
    <clipPath id="a83b66e899">
      <path d="M 24.140625 8.410156 L 6.867188 48.621094 L -14.722656 39.347656 L 2.550781 -0.867188 Z M 24.140625 8.410156 " clip-rule="nonzero" />
    </clipPath>
    <clipPath id="91c5cfe819">
      <path d="M 9 20 L 49 20 L 49 50 L 9 50 Z M 9 20 " clip-rule="nonzero" />
    </clipPath>
    <clipPath id="a1c93d980e">
      <path d="M 157.6875 35.292969 L 108.839844 148.996094 L -35.183594 87.125 L 13.664062 -26.578125 Z M 157.6875 35.292969 " clip-rule="nonzero" />
    </clipPath>
    <clipPath id="baed45d02f">
      <path d="M 157.6875 35.292969 L 108.839844 148.996094 L -35.183594 87.125 L 13.664062 -26.578125 Z M 157.6875 35.292969 " clip-rule="nonzero" />
    </clipPath>
    <clipPath id="e349d8eae6">
      <path d="M 9 66 L 75 66 L 75 100 L 9 100 Z M 9 66 " clip-rule="nonzero" />
    </clipPath>
    <clipPath id="d5eb7e353f">
      <path d="M 157.6875 35.292969 L 108.839844 148.996094 L -35.183594 87.125 L 13.664062 -26.578125 Z M 157.6875 35.292969 " clip-rule="nonzero" />
    </clipPath>
    <clipPath id="2ef7438b08">
      <path d="M 157.6875 35.292969 L 108.839844 148.996094 L -35.183594 87.125 L 13.664062 -26.578125 Z M 157.6875 35.292969 " clip-rule="nonzero" />
    </clipPath>
    <clipPath id="11bda8cc31">
      <path d="M 23 69 L 36 69 L 36 100 L 23 100 Z M 23 69 " clip-rule="nonzero" />
    </clipPath>
    <clipPath id="efe517f39b">
      <path d="M 157.6875 35.292969 L 108.839844 148.996094 L -35.183594 87.125 L 13.664062 -26.578125 Z M 157.6875 35.292969 " clip-rule="nonzero" />
    </clipPath>
    <clipPath id="2f1e3a94d6">
      <path d="M 157.6875 35.292969 L 108.839844 148.996094 L -35.183594 87.125 L 13.664062 -26.578125 Z M 157.6875 35.292969 " clip-rule="nonzero" />
    </clipPath>
    <clipPath id="52b8287f52">
      <path d="M 34 63 L 62 63 L 62 75 L 34 75 Z M 34 63 " clip-rule="nonzero" />
    </clipPath>
    <clipPath id="882c0210c4">
      <path d="M 157.6875 35.292969 L 108.839844 148.996094 L -35.183594 87.125 L 13.664062 -26.578125 Z M 157.6875 35.292969 " clip-rule="nonzero" />
    </clipPath>
    <clipPath id="36f745c56b">
      <path d="M 157.6875 35.292969 L 108.839844 148.996094 L -35.183594 87.125 L 13.664062 -26.578125 Z M 157.6875 35.292969 " clip-rule="nonzero" />
    </clipPath>
    <clipPath id="41c04ddda5">
      <path d="M 25 70 L 32 70 L 32 96 L 25 96 Z M 25 70 " clip-rule="nonzero" />
    </clipPath>
    <clipPath id="27968a370d">
      <path d="M 157.6875 35.292969 L 108.839844 148.996094 L -35.183594 87.125 L 13.664062 -26.578125 Z M 157.6875 35.292969 " clip-rule="nonzero" />
    </clipPath>
    <clipPath id="49bf6001e6">
      <path d="M 157.6875 35.292969 L 108.839844 148.996094 L -35.183594 87.125 L 13.664062 -26.578125 Z M 157.6875 35.292969 " clip-rule="nonzero" />
    </clipPath>
    <clipPath id="724e5278dd">
      <path d="M 548 0 L 612 0 L 612 178 L 548 178 Z M 548 0 " clip-rule="nonzero" />
    </clipPath>
    <clipPath id="b664f02f5e">
      <path d="M 648.875 159.355469 L 568.84375 187.238281 L 506.410156 8.054688 L 586.441406 -19.832031 Z M 648.875 159.355469 " clip-rule="nonzero" />
    </clipPath>
    <clipPath id="e494aa5109">
      <path d="M 648.875 159.355469 L 568.84375 187.238281 L 506.410156 8.054688 L 586.441406 -19.832031 Z M 648.875 159.355469 " clip-rule="nonzero" />
    </clipPath>
    <clipPath id="4e006b4fb8">
      <path d="M 648.875 159.355469 L 568.84375 187.238281 L 506.410156 8.054688 L 586.441406 -19.832031 Z M 648.875 159.355469 " clip-rule="nonzero" />
    </clipPath>
  </defs>
  <g clip-path="url(#15495023fa)">
    <g clip-path="url(#4f7281c457)">
      <g clip-path="url(#ade552b8de)">
        <g clip-path="url(#f92d110cfd)">
          <g clip-path="url(#1eee12dcb2)">
            <path fill="#373434" d="M -23.863281 91.84375 C -13.773438 82.820312 -3.324219 74.046875 8.300781 66.9375 C 20.007812 59.894531 32.777344 55.101562 45.480469 50.40625 C 51.859375 48.152344 58.183594 45.59375 65 44.414062 C 71.824219 43.242188 78.746094 43.613281 85.488281 44.339844 C 99.007812 45.714844 112.410156 48.257812 125.449219 51.976562 L 125.410156 52.144531 C 112.121094 49.480469 98.753906 47.453125 85.304688 46.132812 C 78.601562 45.523438 71.859375 45.039062 65.265625 46.039062 C 58.6875 47.074219 52.269531 49.378906 45.789062 51.320312 C 39.335938 53.359375 32.925781 55.5625 26.761719 58.34375 C 20.570312 61.082031 14.710938 64.476562 9.066406 68.167969 C -2.304688 75.421875 -12.898438 83.851562 -23.75 91.984375 L -23.863281 91.84375 " fill-opacity="1" fill-rule="nonzero" />
          </g>
        </g>
      </g>
    </g>
  </g>
  <g clip-path="url(#a826cd2dd2)">
    <g clip-path="url(#e93eba9b69)">
      <g clip-path="url(#4f30a5e9e1)">
        <path fill="#373434" d="M 113.371094 54.386719 C 112.5625 52.855469 111.9375 51.023438 112.519531 49.210938 C 113.191406 47.402344 114.953125 46.355469 116.53125 45.574219 C 118.164062 44.804688 119.851562 44.242188 121.527344 43.71875 C 123.246094 43.167969 125.042969 42.824219 126.886719 42.722656 C 128.722656 42.65625 130.640625 42.875 132.410156 43.605469 C 134.191406 44.328125 135.667969 45.519531 136.976562 46.730469 C 139.566406 49.175781 141.894531 51.851562 143.96875 54.714844 C 144.492188 55.421875 145.007812 56.140625 145.5 56.867188 L 146.230469 57.96875 C 146.457031 58.34375 146.789062 58.632812 146.925781 59.230469 C 147.046875 59.851562 146.574219 60.378906 146.167969 60.601562 C 145.746094 60.851562 145.277344 60.976562 144.84375 61.058594 C 143.984375 61.242188 143.132812 61.457031 142.265625 61.609375 C 138.816406 62.308594 135.304688 62.855469 131.75 62.933594 C 128.226562 62.960938 124.589844 62.679688 121.214844 61.3125 C 119.542969 60.652344 117.964844 59.722656 116.609375 58.554688 C 115.28125 57.367188 114.167969 55.957031 113.371094 54.386719 Z M 113.523438 54.304688 C 114.332031 55.839844 115.476562 57.210938 116.894531 58.191406 C 118.324219 59.15625 119.910156 59.851562 121.558594 60.269531 C 124.863281 61.109375 128.320312 61.292969 131.769531 61.488281 C 135.214844 61.648438 138.722656 61.621094 142.160156 61.054688 C 143.019531 60.90625 143.878906 60.75 144.71875 60.535156 C 145.507812 60.382812 146.453125 59.933594 146.320312 59.339844 C 146.265625 59.066406 145.949219 58.699219 145.699219 58.34375 L 144.894531 57.320312 C 144.347656 56.640625 143.792969 55.96875 143.21875 55.316406 C 140.917969 52.703125 138.453125 50.246094 135.875 47.960938 C 134.589844 46.835938 133.238281 45.855469 131.742188 45.300781 C 130.238281 44.75 128.605469 44.53125 126.957031 44.59375 C 125.300781 44.617188 123.628906 44.933594 121.980469 45.34375 C 120.289062 45.785156 118.582031 46.136719 116.960938 46.648438 C 115.375 47.171875 113.742188 47.914062 112.972656 49.398438 C 112.246094 50.917969 112.746094 52.792969 113.523438 54.304688 " fill-opacity="1" fill-rule="nonzero" />
      </g>
    </g>
  </g>
  <g clip-path="url(#a6ef5206c7)">
    <g clip-path="url(#58c9af229b)">
      <g clip-path="url(#69edd11d24)">
        <path fill="#373434" d="M 103.160156 41.707031 C 105.523438 41.070312 107.921875 40.613281 110.304688 40.140625 C 111.484375 39.925781 112.625 39.65625 113.632812 39.203125 C 114.632812 38.769531 115.441406 38.03125 116.261719 37.191406 C 117.078125 36.34375 117.90625 35.40625 118.933594 34.609375 C 119.957031 33.820312 121.066406 33.234375 122.152344 32.679688 C 124.304688 31.617188 126.550781 30.386719 127.527344 28.222656 L 127.941406 28.648438 L 123.851562 30.714844 C 122.46875 31.402344 120.953125 31.988281 119.335938 32.183594 C 117.753906 32.414062 116.214844 32.347656 114.789062 32.53125 C 113.34375 32.699219 112.121094 33.125 111.050781 33.96875 C 109.988281 34.816406 109.007812 35.957031 107.964844 37.085938 L 104.820312 40.402344 C 103.785156 41.515625 102.691406 42.585938 101.617188 43.664062 C 101.074219 44.210938 100.539062 44.695312 100.21875 45.304688 C 100.0625 45.601562 99.984375 45.976562 99.851562 46.351562 C 99.734375 46.71875 99.492188 47.15625 99.070312 47.289062 L 98.996094 47.128906 C 99.597656 46.71875 99.40625 45.882812 99.65625 45.085938 C 99.910156 44.261719 100.453125 43.632812 100.910156 43.039062 C 101.84375 41.832031 102.769531 40.617188 103.738281 39.449219 L 106.636719 35.914062 C 107.628906 34.777344 108.566406 33.519531 109.90625 32.488281 C 111.234375 31.398438 113.042969 30.910156 114.617188 30.8125 C 116.222656 30.699219 117.742188 30.785156 119.183594 30.699219 C 122.023438 30.511719 124.863281 29.195312 127.679688 28.074219 L 128.480469 27.753906 L 128.09375 28.496094 C 126.886719 30.835938 124.535156 32.023438 122.558594 33.375 C 121.554688 34.054688 120.570312 34.746094 119.757812 35.550781 C 118.953125 36.367188 118.25 37.332031 117.394531 38.257812 C 116.554688 39.175781 115.492188 40.089844 114.226562 40.589844 C 112.992188 41.109375 111.710938 41.273438 110.488281 41.410156 C 108.054688 41.621094 105.632812 41.832031 103.179688 41.878906 L 103.160156 41.707031 " fill-opacity="1" fill-rule="nonzero" />
      </g>
    </g>
  </g>
  <g clip-path="url(#d4f1cb10b0)">
    <g clip-path="url(#77c569c05d)">
      <g clip-path="url(#d3b17133b6)">
        <path fill="#373434" d="M 84.375 66.386719 C 83.3125 69.898438 82.257812 73.433594 82.015625 77.023438 C 81.898438 78.808594 82.023438 80.589844 82.375 82.308594 C 82.75 84.027344 83.410156 85.679688 84.304688 87.203125 C 86.105469 90.253906 88.574219 92.890625 91.410156 95.125 C 94.226562 97.390625 97.347656 99.320312 100.507812 101.183594 L 100.007812 101.464844 C 100.328125 94.824219 99.457031 88.140625 97.722656 81.746094 C 97.300781 80.148438 96.785156 78.574219 96.28125 76.992188 C 95.757812 75.421875 95.230469 73.863281 94.476562 72.476562 C 93.742188 71.074219 92.761719 69.929688 91.425781 69.238281 C 90.105469 68.503906 88.503906 68.210938 86.835938 67.644531 C 86.003906 67.359375 85.152344 66.988281 84.367188 66.453125 C 83.59375 65.902344 82.984375 65.328125 82.363281 64.710938 C 81.144531 63.480469 80.058594 62.179688 78.996094 60.921875 C 77.921875 59.660156 76.839844 58.460938 75.613281 57.464844 C 74.363281 56.460938 73.019531 55.488281 71.636719 54.617188 C 66.078125 51.15625 59.726562 48.882812 53.082031 48.289062 L 53.089844 48.117188 C 59.796875 47.996094 66.558594 49.882812 72.4375 53.285156 C 73.917969 54.136719 75.324219 55.054688 76.710938 56.089844 C 78.097656 57.175781 79.269531 58.449219 80.390625 59.710938 C 81.507812 60.964844 82.546875 62.253906 83.683594 63.386719 C 84.234375 63.953125 84.855469 64.507812 85.4375 64.9375 C 86.019531 65.359375 86.703125 65.683594 87.441406 65.953125 C 88.910156 66.503906 90.636719 66.851562 92.238281 67.761719 C 93.875 68.652344 95.117188 70.191406 95.867188 71.761719 C 96.640625 73.351562 97.117188 74.984375 97.585938 76.59375 C 98.050781 78.214844 98.433594 79.855469 98.777344 81.496094 C 100.144531 88.085938 100.683594 94.785156 100.683594 101.484375 L 100.679688 102.03125 L 100.183594 101.765625 C 96.941406 100.039062 93.640625 98.367188 90.601562 96.199219 C 87.582031 94.023438 84.796875 91.308594 82.988281 87.941406 C 81.125 84.625 80.34375 80.640625 80.90625 76.917969 C 81.363281 73.167969 82.714844 69.679688 84.207031 66.328125 L 84.375 66.386719 " fill-opacity="1" fill-rule="nonzero" />
      </g>
    </g>
  </g>
  <g clip-path="url(#b061ff700f)">
    <g clip-path="url(#a6d1c63c71)">
      <g clip-path="url(#7e7a5e8432)">
        <path fill="#373434" d="M 82.691406 62.996094 C 84.378906 63.953125 86.25 64.273438 88.070312 64.253906 C 89.90625 64.238281 91.703125 63.773438 93.503906 63.230469 C 95.3125 62.710938 97.15625 62.105469 98.953125 61.402344 C 100.75 60.6875 102.492188 59.851562 104.1875 58.933594 L 104.28125 59.589844 C 102.042969 59.253906 99.800781 58.980469 97.578125 58.59375 C 95.359375 58.175781 93.132812 57.816406 90.929688 57.332031 C 88.742188 56.875 86.621094 56.363281 84.480469 56.40625 C 82.371094 56.460938 80.191406 56.996094 78.488281 58.484375 L 78.355469 58.375 C 79.636719 56.402344 82.023438 55.292969 84.367188 54.988281 C 86.746094 54.679688 89.113281 55.03125 91.320312 55.503906 C 93.527344 55.960938 95.710938 56.546875 97.902344 57.074219 C 100.085938 57.625 102.253906 58.292969 104.429688 58.902344 L 105.449219 59.183594 L 104.515625 59.566406 C 102.707031 60.292969 100.945312 61.097656 99.242188 62.03125 C 97.542969 63 95.859375 63.996094 93.984375 64.695312 C 92.117188 65.363281 90.066406 65.734375 88.019531 65.5625 C 85.992188 65.390625 83.953125 64.597656 82.585938 63.140625 L 82.691406 62.996094 " fill-opacity="1" fill-rule="nonzero" />
      </g>
    </g>
  </g>
  <g clip-path="url(#6353f105f1)">
    <g clip-path="url(#2405deeb33)">
      <g clip-path="url(#a24dd5be87)">
        <path fill="#373434" d="M 71.960938 53.132812 C 70.300781 54.707031 69.761719 56.902344 69.144531 59.046875 C 68.535156 61.203125 68.113281 63.390625 67.703125 65.589844 C 67.273438 67.777344 66.921875 70.03125 66.929688 72.289062 C 66.957031 74.554688 67.351562 76.800781 67.976562 78.96875 L 67.113281 78.8125 C 68.242188 76.761719 69.695312 74.9375 71.089844 73.15625 C 72.480469 71.375 73.765625 69.570312 74.644531 67.625 C 75.523438 65.695312 75.949219 63.546875 75.835938 61.378906 C 75.746094 59.203125 75.15625 57.023438 74.078125 55.011719 L 74.21875 54.90625 C 75.796875 56.621094 76.816406 58.867188 77.195312 61.234375 C 77.558594 63.59375 77.328125 66.121094 76.355469 68.367188 C 75.390625 70.617188 73.863281 72.46875 72.359375 74.207031 C 70.859375 75.949219 69.273438 77.546875 67.910156 79.328125 L 67.207031 80.261719 L 67.046875 79.171875 C 66.707031 76.882812 66.519531 74.601562 66.363281 72.3125 C 66.214844 70.027344 66.0625 67.710938 66.253906 65.390625 C 66.484375 63.078125 67.042969 60.800781 67.851562 58.625 C 68.640625 56.53125 69.710938 54.109375 71.859375 52.988281 L 71.960938 53.132812 " fill-opacity="1" fill-rule="nonzero" />
      </g>
    </g>
  </g>
  <g clip-path="url(#83e2454d59)">
    <g clip-path="url(#3ebd7ed255)">
      <g clip-path="url(#166b68a95c)">
        <path fill="#373434" d="M 92.261719 88.046875 C 90.769531 86.625 89.925781 84.667969 89.585938 82.722656 C 89.449219 81.726562 89.527344 80.710938 89.386719 79.742188 C 89.261719 78.765625 88.980469 77.832031 88.628906 76.90625 C 87.90625 75.078125 87.351562 73.261719 86.652344 71.53125 C 86.035156 69.765625 85.324219 68.089844 84.367188 66.320312 L 84.492188 66.199219 C 86.292969 67.203125 87.574219 68.988281 88.386719 70.839844 C 89.136719 72.734375 89.523438 74.722656 89.566406 76.714844 C 89.621094 77.703125 89.691406 78.6875 89.945312 79.632812 C 90.1875 80.578125 90.664062 81.464844 90.996094 82.367188 C 91.601562 84.199219 91.996094 85.984375 92.417969 87.964844 L 92.261719 88.046875 " fill-opacity="1" fill-rule="nonzero" />
      </g>
    </g>
  </g>
  <g clip-path="url(#e728847bda)">
    <g clip-path="url(#3eaae40ddf)">
      <g clip-path="url(#0b5dc999da)">
        <path fill="#373434" d="M 92.699219 59.78125 C 91.648438 60.230469 90.773438 60.367188 89.847656 60.289062 C 89.382812 60.210938 88.875 59.984375 88.390625 60.015625 C 87.910156 60.03125 87.46875 60.257812 87.046875 60.53125 C 86.222656 61.121094 85.3125 61.535156 84.257812 61.738281 C 83.226562 61.859375 81.921875 61.648438 81.175781 60.734375 L 81.238281 60.574219 C 82.328125 60.378906 83.054688 60.125 83.925781 59.898438 C 84.792969 59.75 85.738281 59.535156 86.789062 59.609375 C 87.3125 59.617188 87.816406 59.609375 88.296875 59.460938 C 88.773438 59.316406 89.242188 58.972656 89.75 58.832031 C 90.765625 58.628906 91.851562 58.859375 92.730469 59.605469 L 92.699219 59.78125 " fill-opacity="1" fill-rule="nonzero" />
      </g>
    </g>
  </g>
  <g clip-path="url(#b7a5727707)">
    <g clip-path="url(#fc061e76a9)">
      <g clip-path="url(#9d258d974b)">
        <path fill="#373434" d="M 69.902344 70.121094 C 69.730469 68.609375 69.941406 67.257812 70.417969 65.957031 C 70.695312 65.316406 71.128906 64.714844 71.339844 64.054688 C 71.566406 63.390625 71.601562 62.695312 71.597656 61.984375 C 71.535156 60.566406 71.691406 59.195312 71.902344 57.84375 C 72.183594 56.496094 72.542969 55.3125 72.835938 53.867188 L 73.007812 53.835938 C 73.847656 55.128906 73.890625 56.753906 73.742188 58.132812 C 73.515625 59.527344 73.164062 60.886719 72.539062 62.179688 C 72.242188 62.835938 71.988281 63.492188 71.894531 64.179688 C 71.785156 64.871094 71.894531 65.617188 71.824219 66.316406 C 71.605469 67.710938 71.050781 69.019531 70.066406 70.167969 L 69.902344 70.121094 " fill-opacity="1" fill-rule="nonzero" />
      </g>
    </g>
  </g>
  <g clip-path="url(#1434b04d93)">
    <g clip-path="url(#f11c2d01e1)">
      <g clip-path="url(#004ffd2998)">
        <path fill="#373434" d="M 73.84375 27.804688 C 77.363281 28.183594 80.882812 28.394531 84.382812 28.339844 C 87.851562 28.230469 91.371094 27.871094 94.289062 26.171875 C 95.742188 25.324219 97.121094 24.257812 98.617188 23.238281 C 100.105469 22.226562 101.679688 21.339844 103.304688 20.585938 C 106.53125 19.019531 109.90625 17.902344 113.195312 16.605469 L 113.257812 17.203125 C 107.335938 16.105469 101.242188 15.339844 95.339844 16.242188 C 92.402344 16.699219 89.527344 17.488281 86.941406 18.847656 C 84.335938 20.148438 82.140625 22.15625 79.773438 24.085938 C 77.394531 26.003906 75.078125 27.792969 73.167969 30.03125 C 72.1875 31.132812 71.261719 32.320312 70.289062 33.496094 C 69.296875 34.664062 68.277344 35.804688 67.222656 36.90625 C 63.023438 41.347656 58.203125 45.183594 52.996094 48.285156 L 52.894531 48.136719 C 57.71875 44.476562 62.128906 40.367188 66.089844 35.875 C 68.074219 33.625 69.789062 31.210938 71.777344 28.828125 C 73.757812 26.40625 76.277344 24.488281 78.640625 22.664062 C 81 20.84375 83.363281 18.773438 86.230469 17.421875 C 89.074219 16.082031 92.136719 15.335938 95.203125 15.089844 C 101.367188 14.566406 107.386719 15.753906 113.359375 16.585938 L 114.519531 16.75 L 113.429688 17.1875 C 110.148438 18.503906 106.949219 20.007812 103.890625 21.710938 C 102.371094 22.574219 100.890625 23.496094 99.46875 24.476562 C 98.054688 25.460938 96.6875 26.640625 95.03125 27.511719 C 91.699219 29.273438 87.925781 29.660156 84.367188 29.480469 C 80.800781 29.332031 77.261719 28.839844 73.816406 27.96875 L 73.84375 27.804688 " fill-opacity="1" fill-rule="nonzero" />
      </g>
    </g>
  </g>
  <g clip-path="url(#5c13d0ed63)">
    <g clip-path="url(#913786a3d6)">
      <g clip-path="url(#6c363020c0)">
        <path fill="#373434" d="M 71.402344 30.378906 C 72.554688 28.53125 72.238281 26.355469 71.566406 24.445312 C 70.871094 22.507812 69.894531 20.449219 69.429688 18.285156 C 68.9375 16.125 68.824219 13.902344 68.855469 11.710938 C 68.894531 9.519531 69.015625 7.351562 69.257812 5.179688 L 69.8125 5.433594 C 68.191406 7.542969 66.691406 9.75 65.609375 12.058594 C 65.09375 13.222656 64.664062 14.414062 64.480469 15.636719 C 64.289062 16.867188 64.3125 18.125 64.394531 19.394531 C 64.597656 21.949219 65.125 24.480469 65.847656 27.027344 C 66.566406 29.558594 67.339844 32.09375 68.285156 34.59375 L 68.128906 34.675781 C 66.628906 32.4375 65.460938 29.992188 64.488281 27.476562 C 63.511719 24.980469 62.714844 22.300781 62.53125 19.535156 C 62.28125 16.769531 62.886719 13.792969 64.265625 11.378906 C 65.613281 8.929688 67.539062 6.992188 69.324219 5.023438 L 70.074219 4.191406 L 69.878906 5.273438 C 69.496094 7.378906 69.375 9.546875 69.636719 11.675781 C 69.867188 13.808594 70.402344 15.875 70.941406 17.910156 C 71.214844 18.933594 71.503906 19.941406 71.832031 20.945312 C 72.179688 21.945312 72.53125 22.988281 72.816406 24.078125 C 73.382812 26.207031 73.25 28.925781 71.535156 30.496094 L 71.402344 30.378906 " fill-opacity="1" fill-rule="nonzero" />
      </g>
    </g>
  </g>
  <g clip-path="url(#07b5f608c5)">
    <g clip-path="url(#df29d24829)">
      <g clip-path="url(#724084536e)">
        <path fill="#373434" d="M 75.949219 25.894531 C 77.460938 25.328125 79.070312 25.351562 80.582031 25.347656 C 82.148438 25.386719 83.460938 25.355469 84.863281 25.003906 C 86.269531 24.707031 87.734375 24.226562 89.085938 23.539062 C 90.445312 22.839844 91.710938 21.96875 93.066406 21.191406 C 94.410156 20.382812 95.835938 19.714844 97.324219 19.230469 C 98.800781 18.726562 100.304688 18.300781 101.832031 18.027344 C 104.898438 17.503906 107.980469 17.363281 111.074219 17.5625 L 111.09375 17.742188 C 108.117188 18.636719 105.125 19.210938 102.191406 19.855469 C 99.230469 20.421875 96.339844 21.125 93.46875 22.054688 C 92.039062 22.542969 90.667969 23.21875 89.367188 24.03125 C 88.066406 24.839844 86.8125 25.796875 85.285156 26.398438 C 83.757812 27.015625 81.957031 26.9375 80.488281 26.699219 C 78.960938 26.511719 77.5 26.136719 75.980469 26.070312 L 75.949219 25.894531 " fill-opacity="1" fill-rule="nonzero" />
      </g>
    </g>
  </g>
  <g clip-path="url(#2ea27511cc)">
    <g clip-path="url(#a111fab7a3)">
      <g clip-path="url(#b9676207c6)">
        <path fill="#373434" d="M 66.71875 36.316406 C 68.789062 37.519531 70.617188 39.121094 72.792969 39.289062 C 74.972656 39.601562 77.289062 39.167969 79.652344 39.113281 C 82.011719 38.992188 84.378906 38.917969 86.707031 38.503906 C 89.035156 38.109375 91.3125 37.464844 93.570312 36.785156 L 93.5625 37.953125 C 91.519531 37.578125 89.488281 37.136719 87.472656 36.671875 C 85.449219 36.21875 83.429688 35.753906 81.4375 35.191406 C 79.4375 34.664062 77.464844 34.011719 75.480469 33.417969 C 74.519531 33.105469 73.554688 32.824219 72.570312 32.710938 C 71.589844 32.582031 70.574219 32.585938 69.65625 33.03125 L 69.554688 32.882812 C 70.375 32.15625 71.535156 31.917969 72.597656 31.863281 C 73.6875 31.820312 74.757812 31.945312 75.808594 32.132812 C 77.835938 32.5625 79.878906 32.929688 81.886719 33.417969 C 83.910156 33.878906 85.902344 34.433594 87.894531 35.007812 C 89.890625 35.5625 91.882812 36.140625 93.851562 36.785156 L 96.289062 37.578125 L 93.839844 37.957031 C 91.488281 38.324219 89.132812 38.613281 86.796875 39.023438 C 84.457031 39.410156 82.152344 40.007812 79.808594 40.445312 C 77.492188 40.863281 75.050781 41.191406 72.539062 40.664062 C 71.308594 40.429688 70.070312 39.777344 69.160156 38.980469 C 68.226562 38.199219 67.425781 37.320312 66.605469 36.453125 L 66.71875 36.316406 " fill-opacity="1" fill-rule="nonzero" />
      </g>
    </g>
  </g>
  <g clip-path="url(#2719fb9906)">
    <g clip-path="url(#37d5dc1ad6)">
      <g clip-path="url(#1c151277bc)">
        <path fill="#373434" d="M 68.558594 34.21875 C 70.53125 34.84375 72.355469 35.203125 74.246094 35.597656 C 75.15625 35.816406 76.191406 36.105469 77.1875 36.214844 C 78.195312 36.328125 79.207031 36.261719 80.226562 36.15625 C 82.257812 35.898438 84.28125 35.890625 86.296875 35.972656 C 88.3125 36.140625 90.320312 36.4375 92.316406 37.085938 L 92.308594 37.261719 C 90.265625 37.738281 88.238281 37.851562 86.214844 37.835938 C 84.199219 37.738281 82.179688 37.554688 80.183594 37.113281 C 79.179688 36.914062 78.171875 36.761719 77.160156 36.785156 C 76.144531 36.777344 75.15625 37.066406 74.0625 37.042969 C 71.960938 36.910156 69.8125 36.042969 68.449219 34.359375 L 68.558594 34.21875 " fill-opacity="1" fill-rule="nonzero" />
      </g>
    </g>
  </g>
  <g clip-path="url(#f9ba6bcb33)">
    <g clip-path="url(#bc71c27a3b)">
      <g clip-path="url(#6c4053377b)">
        <path fill="#373434" d="M 8.886719 49.84375 C 13.546875 49.804688 17.953125 48.457031 22.300781 46.894531 C 26.675781 45.394531 31.074219 43.949219 34.785156 41.382812 C 38.519531 38.855469 41.644531 35.460938 44.226562 31.671875 C 46.808594 27.875 48.765625 23.648438 50.3125 19.300781 L 50.640625 19.667969 C 44.304688 21.113281 38.207031 23.5625 32.632812 26.792969 C 29.851562 28.421875 27.203125 30.25 24.761719 32.328125 C 22.308594 34.386719 20.109375 36.746094 17.976562 39.171875 C 15.847656 41.59375 13.722656 44.109375 11.726562 46.617188 C 9.757812 49.15625 8.085938 51.789062 7.402344 54.910156 C 7.011719 56.464844 6.746094 58.066406 6.359375 59.679688 C 5.957031 61.289062 5.480469 62.867188 4.910156 64.417969 C 3.796875 67.527344 2.246094 70.449219 0.453125 73.183594 L 0.300781 73.085938 C 1.855469 70.230469 3.054688 67.199219 3.988281 64.109375 C 4.960938 61.007812 5.324219 57.859375 5.964844 54.585938 C 6.570312 51.265625 8.269531 48.109375 10.320312 45.539062 C 12.371094 42.933594 14.429688 40.445312 16.585938 37.949219 C 20.914062 33.007812 26.085938 28.605469 31.964844 25.582031 C 37.8125 22.484375 44.152344 20.578125 50.515625 19.121094 L 51.023438 19.003906 L 50.84375 19.492188 C 49.246094 23.851562 47.421875 28.144531 45.054688 32.199219 C 42.691406 36.230469 39.609375 39.972656 35.65625 42.664062 C 31.671875 45.367188 27.09375 46.742188 22.675781 48.070312 C 20.449219 48.710938 18.191406 49.355469 15.882812 49.761719 C 13.5625 50.128906 11.203125 50.253906 8.878906 50.015625 L 8.886719 49.84375 " fill-opacity="1" fill-rule="nonzero" />
      </g>
    </g>
  </g>
  <g clip-path="url(#e5b9184c5f)">
    <g clip-path="url(#bf86d5ea8e)">
      <g clip-path="url(#75a38d3147)">
        <path fill="#373434" d="M 3.472656 12.273438 C 4.117188 16.09375 4.496094 19.863281 4.730469 23.671875 C 4.792969 25.574219 4.769531 27.5 4.964844 29.398438 C 5.140625 31.308594 5.679688 33.144531 5.804688 35.148438 C 5.964844 37.207031 5.265625 39.160156 4.878906 40.933594 C 4.464844 42.761719 4.207031 44.605469 4.074219 46.441406 C 3.746094 50.117188 4.21875 53.8125 5.707031 57.371094 L 5.554688 57.460938 C 3.058594 54.4375 2.011719 50.273438 2.210938 46.324219 C 2.304688 44.339844 2.730469 42.394531 3.285156 40.519531 C 3.828125 38.59375 4.675781 36.949219 4.847656 35.132812 C 5.132812 31.398438 3.90625 27.582031 3.28125 23.808594 C 2.773438 19.996094 2.738281 16.109375 3.292969 12.277344 L 3.472656 12.273438 " fill-opacity="1" fill-rule="nonzero" />
      </g>
    </g>
  </g>
  <g clip-path="url(#0000e1aa5b)">
    <g clip-path="url(#afbd260bc1)">
      <g clip-path="url(#e7a8dfbeff)">
        <g clip-path="url(#303a7b1e15)">
          <g clip-path="url(#a83b66e899)">
            <path fill="#373434" d="M 9.804688 34.640625 C 9.667969 37.316406 9.175781 39.976562 8.140625 42.507812 C 7.574219 43.746094 6.859375 44.988281 5.636719 45.882812 C 5.035156 46.324219 4.21875 46.644531 3.355469 46.570312 C 2.503906 46.496094 1.785156 46.070312 1.199219 45.628906 C -3.039062 41.84375 -5.386719 36.535156 -6.175781 31.109375 C -6.976562 25.667969 -6.171875 20.082031 -4.238281 15.058594 C -2.320312 9.992188 0.445312 5.390625 3.410156 0.933594 L 4.027344 0 L 4.015625 1.148438 C 3.992188 3.957031 5.808594 6.292969 7.261719 8.808594 C 7.984375 10.082031 8.675781 11.476562 8.90625 13.058594 C 9.183594 14.671875 8.800781 16.191406 8.671875 17.542969 C 8.382812 20.285156 8.6875 23.144531 9.082031 25.996094 C 9.453125 28.855469 9.925781 31.746094 9.804688 34.640625 Z M 9.632812 34.632812 C 9.761719 31.75 9.082031 28.929688 8.386719 26.128906 C 7.71875 23.332031 6.980469 20.441406 7.175781 17.414062 C 7.273438 15.898438 7.574219 14.546875 7.363281 13.28125 C 7.199219 11.988281 6.648438 10.726562 6.050781 9.441406 C 5.445312 8.167969 4.730469 6.886719 4.164062 5.519531 C 3.589844 4.148438 3.234375 2.628906 3.34375 1.105469 L 3.957031 1.324219 C 0.761719 5.554688 -1.746094 10.335938 -3.226562 15.394531 C -4.679688 20.441406 -5.308594 25.730469 -4.402344 30.832031 C -3.574219 35.898438 -1.269531 40.816406 2.140625 44.464844 C 3.023438 45.265625 4.003906 45.554688 5.046875 44.945312 C 6.070312 44.363281 6.894531 43.320312 7.53125 42.203125 C 8.800781 39.925781 9.472656 37.273438 9.632812 34.632812 " fill-opacity="1" fill-rule="nonzero" />
          </g>
        </g>
      </g>
    </g>
  </g>
  <g clip-path="url(#91c5cfe819)">
    <g clip-path="url(#a1c93d980e)">
      <g clip-path="url(#baed45d02f)">
        <path fill="#373434" d="M 9.800781 48.980469 C 13.363281 46.894531 17.046875 45.210938 20.703125 43.507812 C 22.566406 42.707031 24.457031 41.933594 26.1875 40.867188 C 27.917969 39.8125 29.480469 38.5 30.886719 37.042969 C 33.6875 34.132812 36.339844 31.019531 39.304688 28.195312 C 42.179688 25.476562 45.070312 22.253906 48.859375 20.488281 L 48.960938 20.632812 C 45.832031 23.304688 43.523438 26.53125 40.617188 29.523438 C 37.671875 32.324219 34.839844 35.277344 31.523438 37.765625 C 29.882812 39.019531 28.167969 40.164062 26.496094 41.34375 C 24.820312 42.519531 23.15625 43.761719 21.367188 44.804688 C 17.753906 46.792969 13.867188 48.175781 9.863281 49.144531 L 9.800781 48.980469 " fill-opacity="1" fill-rule="nonzero" />
      </g>
    </g>
  </g>
  <g clip-path="url(#e349d8eae6)">
    <g clip-path="url(#d5eb7e353f)">
      <g clip-path="url(#2ef7438b08)">
        <path fill="#373434" d="M 42.960938 74.609375 C 42.851562 78.476562 43.878906 82.257812 45.632812 85.609375 C 47.417969 88.953125 49.808594 91.980469 52.71875 94.386719 C 54.175781 95.570312 55.691406 96.652344 57.417969 97.296875 C 59.144531 97.953125 60.996094 98.335938 62.886719 98.558594 C 66.691406 98.976562 70.582031 99.03125 74.402344 98.535156 L 74.195312 98.988281 C 70.820312 93.609375 67.085938 88.285156 62.125 84.394531 C 59.652344 82.457031 56.945312 80.929688 53.976562 79.921875 C 51.03125 78.855469 47.914062 78.105469 44.851562 76.953125 C 43.328125 76.394531 41.78125 75.664062 40.457031 74.796875 L 36.351562 72.285156 C 33.664062 70.71875 30.792969 69.433594 27.789062 68.566406 C 21.78125 66.820312 15.320312 66.523438 9.0625 67.785156 L 9.015625 67.617188 C 15.132812 65.699219 21.867188 65.472656 28.183594 67.09375 C 31.351562 67.855469 34.421875 69.078125 37.269531 70.703125 C 40.0625 72.230469 42.609375 74.203125 45.515625 75.253906 C 48.410156 76.421875 51.507812 77.246094 54.542969 78.414062 C 57.59375 79.554688 60.472656 81.3125 62.902344 83.472656 C 67.773438 87.84375 71.148438 93.378906 74.695312 98.671875 L 74.960938 99.058594 L 74.484375 99.128906 C 70.625 99.660156 66.71875 99.953125 62.789062 99.761719 C 60.820312 99.660156 58.808594 99.40625 56.894531 98.6875 C 54.976562 97.984375 53.214844 96.886719 51.722656 95.558594 C 48.746094 92.925781 46.210938 89.75 44.585938 86.121094 C 42.945312 82.519531 42.164062 78.464844 42.78125 74.589844 L 42.960938 74.609375 " fill-opacity="1" fill-rule="nonzero" />
      </g>
    </g>
  </g>
  <g clip-path="url(#11bda8cc31)">
    <g clip-path="url(#efe517f39b)">
      <g clip-path="url(#2f1e3a94d6)">
        <path fill="#373434" d="M 32.039062 69.933594 C 33.121094 70.746094 33.738281 71.992188 34.207031 73.230469 C 34.667969 74.484375 34.925781 75.808594 35.058594 77.160156 C 35.347656 79.882812 34.695312 82.621094 33.726562 85.109375 C 32.75 87.617188 31.472656 89.925781 30.105469 92.1875 C 28.738281 94.453125 27.191406 96.601562 25.480469 98.605469 L 24.546875 99.707031 L 24.558594 98.328125 C 24.582031 95.621094 24.539062 92.917969 24.359375 90.21875 C 24.21875 87.507812 23.648438 84.875 23.667969 82.046875 C 23.707031 79.160156 24.949219 76.480469 26.320312 74.179688 C 26.992188 73.054688 27.535156 71.753906 28.398438 70.644531 C 28.835938 70.109375 29.347656 69.546875 30.066406 69.359375 C 30.796875 69.183594 31.5 69.523438 32.039062 69.933594 Z M 31.933594 70.070312 C 31.402344 69.695312 30.742188 69.398438 30.128906 69.59375 C 29.535156 69.816406 29.097656 70.335938 28.785156 70.90625 C 28.148438 72.054688 27.832031 73.347656 27.335938 74.660156 C 26.382812 77.207031 25.355469 79.578125 25.109375 82.152344 C 24.925781 83.4375 24.902344 84.773438 24.886719 86.128906 C 24.863281 87.480469 24.855469 88.839844 24.914062 90.1875 C 25.027344 92.886719 25.277344 95.585938 25.585938 98.277344 L 24.667969 97.992188 C 26.082031 95.820312 27.414062 93.609375 28.664062 91.355469 C 29.886719 89.097656 31.023438 86.761719 32.007812 84.421875 C 32.976562 82.078125 33.683594 79.671875 33.933594 77.167969 C 34.035156 75.902344 33.996094 74.613281 33.753906 73.363281 C 33.492188 72.117188 32.941406 70.878906 31.933594 70.070312 " fill-opacity="1" fill-rule="nonzero" />
      </g>
    </g>
  </g>
  <g clip-path="url(#52b8287f52)">
    <g clip-path="url(#882c0210c4)">
      <g clip-path="url(#36f745c56b)">
        <path fill="#373434" d="M 40.820312 73.882812 C 42.664062 73.871094 44.433594 73.5 46.15625 73.035156 C 47.890625 72.570312 49.570312 71.9375 51.164062 71.1875 C 52.742188 70.421875 54.394531 69.589844 55.976562 68.664062 C 57.574219 67.75 59.074219 66.671875 60.589844 65.613281 L 60.679688 66.171875 C 58.433594 65.683594 56.144531 65.484375 53.882812 65.242188 C 51.617188 65.019531 49.347656 64.832031 47.195312 65.054688 C 45.015625 65.234375 43.132812 65.988281 41.207031 67.269531 C 39.285156 68.453125 37.320312 69.871094 35.03125 70.503906 L 34.96875 70.339844 C 36.945312 69.167969 38.523438 67.519531 40.371094 66.089844 C 41.296875 65.378906 42.257812 64.636719 43.417969 64.109375 C 44.566406 63.605469 45.796875 63.292969 47.019531 63.199219 C 49.464844 62.996094 51.808594 63.359375 54.09375 63.761719 C 56.394531 64.175781 58.625 64.886719 60.839844 65.574219 L 61.515625 65.789062 L 60.925781 66.136719 C 59.347656 67.070312 57.863281 68.15625 56.4375 69.328125 C 54.988281 70.484375 53.550781 71.691406 51.851562 72.585938 C 50.136719 73.457031 48.296875 73.984375 46.425781 74.296875 C 44.570312 74.585938 42.605469 74.613281 40.796875 74.058594 L 40.820312 73.882812 " fill-opacity="1" fill-rule="nonzero" />
      </g>
    </g>
  </g>
  <g clip-path="url(#41c04ddda5)">
    <g clip-path="url(#27968a370d)">
      <g clip-path="url(#49bf6001e6)">
        <path fill="#373434" d="M 25.890625 95.804688 C 25.523438 94.664062 25.738281 93.433594 25.9375 92.378906 C 26.152344 91.292969 26.414062 90.214844 26.820312 89.183594 C 27.246094 88.160156 27.804688 87.171875 28.179688 86.128906 C 28.550781 85.089844 28.75 84 28.914062 82.894531 C 29.164062 80.664062 29.855469 78.542969 30.046875 76.527344 C 30.335938 74.484375 30.28125 72.308594 30.515625 70.042969 L 30.695312 70.015625 C 31.539062 72.113281 32.074219 74.351562 31.910156 76.714844 C 31.808594 77.898438 31.460938 79.023438 31.097656 80.082031 C 30.742188 81.148438 30.300781 82.148438 29.835938 83.171875 C 29.378906 84.179688 28.96875 85.210938 28.71875 86.285156 C 28.472656 87.363281 28.40625 88.488281 28.21875 89.585938 C 28.011719 90.671875 27.644531 91.714844 27.25 92.746094 C 26.847656 93.800781 26.335938 94.707031 26.066406 95.789062 L 25.890625 95.804688 " fill-opacity="1" fill-rule="nonzero" />
      </g>
    </g>
  </g>
  <g clip-path="url(#724e5278dd)">
    <g clip-path="url(#b664f02f5e)">
      <g clip-path="url(#e494aa5109)">
        <g clip-path="url(#4e006b4fb8)">
          <path fill="#000000" d="M 581.777344 134.589844 C 581.878906 134.625 581.960938 134.703125 582.015625 134.808594 C 582.191406 135.160156 582.335938 135.523438 582.480469 135.882812 C 584.789062 139.683594 587.746094 143.074219 589.964844 146.921875 C 593.511719 153.082031 595.511719 160.679688 595.71875 167.753906 C 595.792969 170.128906 595.945312 172.472656 595.828125 174.863281 C 595.816406 175.242188 595.867188 175.902344 595.859375 176.5 C 595.851562 176.984375 595.769531 177.425781 595.617188 177.710938 C 595.519531 177.886719 595.386719 177.917969 595.289062 177.949219 C 595.15625 177.980469 595.039062 177.949219 594.914062 177.847656 C 594.863281 177.8125 594.804688 177.742188 594.765625 177.632812 C 594.742188 177.566406 594.71875 177.449219 594.699219 177.386719 C 594.574219 176.980469 594.453125 176.578125 594.328125 176.171875 C 594.039062 175.179688 593.675781 174.195312 593.257812 173.25 C 592.015625 170.511719 590.726562 167.683594 589.089844 165.15625 C 585.640625 159.785156 583.503906 153.492188 582.796875 147.144531 C 582.480469 144.230469 582.75 141.394531 582.285156 138.621094 L 582.28125 138.605469 C 580.777344 135.6875 579.410156 132.691406 578.246094 129.605469 C 577.164062 126.703125 576.273438 123.734375 575.675781 120.683594 C 575.453125 119.578125 575.285156 118.476562 575.144531 117.359375 C 574.816406 119.140625 574.421875 120.890625 573.972656 122.585938 C 573.378906 124.796875 572.875 127.160156 571.878906 129.242188 C 570.253906 132.65625 567.992188 135.488281 565.800781 138.507812 C 564.863281 139.78125 563.710938 140.902344 562.726562 142.140625 C 561.640625 143.503906 560.667969 144.988281 559.566406 146.355469 C 558.890625 147.199219 558.261719 148.066406 557.609375 148.917969 C 557.414062 149.183594 557.230469 149.429688 557.054688 149.703125 C 556.988281 149.816406 556.925781 150.050781 556.859375 150.164062 C 556.789062 150.277344 556.710938 150.359375 556.652344 150.398438 C 556.519531 150.480469 556.398438 150.488281 556.273438 150.441406 C 556.171875 150.40625 556.042969 150.34375 555.957031 150.15625 C 555.820312 149.863281 555.820312 149.453125 555.894531 148.996094 C 555.984375 148.480469 556.175781 147.898438 556.25 147.546875 C 556.636719 145.460938 556.886719 143.351562 557.367188 141.285156 C 558.675781 135.722656 560.546875 130.328125 564.304688 125.882812 C 566.550781 123.21875 569.183594 121.191406 571.265625 118.835938 C 573.144531 116.710938 574.570312 114.316406 574.804688 110.921875 C 574.882812 106.203125 575.652344 101.726562 576.691406 97.082031 C 578.558594 88.75 581.332031 79.882812 582.453125 68.015625 C 582.847656 63.847656 582.882812 59.734375 582.589844 55.699219 C 582.566406 55.832031 582.539062 55.964844 582.515625 56.101562 C 581.695312 60.074219 579.96875 65.566406 577.546875 68.863281 C 574.667969 72.75 569.527344 76.726562 566.089844 80.304688 C 564.695312 81.757812 563.605469 83.359375 562.542969 85.050781 C 562.3125 85.417969 562.054688 86.011719 561.75 86.527344 C 561.515625 86.933594 561.238281 87.28125 560.953125 87.488281 C 560.769531 87.625 560.617188 87.605469 560.519531 87.582031 C 560.363281 87.546875 560.242188 87.449219 560.183594 87.234375 C 560.160156 87.171875 560.160156 87.066406 560.191406 86.945312 C 560.230469 86.808594 560.339844 86.554688 560.367188 86.421875 C 560.464844 86.027344 560.566406 85.652344 560.644531 85.265625 C 560.910156 84.117188 561.015625 82.933594 561.207031 81.777344 C 561.28125 81.320312 561.371094 80.859375 561.449219 80.417969 C 561.375 80.355469 561.335938 80.242188 561.394531 80.152344 C 561.476562 79.980469 561.542969 79.8125 561.628906 79.640625 C 562.027344 77.90625 562.523438 76.246094 563.144531 74.578125 C 563.070312 74.515625 563.03125 74.40625 563.089844 74.3125 C 563.425781 73.53125 563.785156 72.761719 564.195312 72.03125 C 564.3125 71.753906 564.445312 71.460938 564.578125 71.179688 C 567.042969 65.738281 570.867188 61.894531 575.007812 57.714844 C 576.4375 56.265625 578.03125 54.867188 579.308594 53.277344 C 580.53125 51.742188 581.445312 50.042969 581.574219 47.9375 C 581.582031 47.757812 581.585938 47.558594 581.578125 47.382812 C 579.839844 37.976562 576.417969 28.921875 571.796875 20.238281 C 573.851562 27.882812 571.957031 37.589844 569.308594 44.492188 C 569.25 44.640625 569.191406 44.785156 569.136719 44.929688 C 568.074219 47.699219 566.644531 50.183594 564.917969 52.59375 C 564.816406 52.757812 564.667969 53.058594 564.488281 53.316406 C 564.335938 53.550781 564.179688 53.765625 564.003906 53.882812 C 563.84375 53.992188 563.683594 54.046875 563.519531 54.03125 C 563.351562 54.019531 563.171875 53.957031 563 53.78125 C 560.953125 51.558594 560.230469 47.476562 560.355469 42.992188 C 560.523438 36.378906 562.492188 28.902344 564.398438 25.464844 C 565.277344 23.867188 566.804688 22.386719 568.011719 20.800781 C 568.996094 19.511719 569.757812 18.152344 569.675781 16.570312 C 564.972656 9.199219 555.757812 -1.542969 549.164062 -5.03125 C 548.835938 -5.203125 548.710938 -5.605469 548.882812 -5.933594 C 549.023438 -6.199219 549.300781 -6.332031 549.585938 -6.289062 C 549.605469 -6.332031 549.65625 -6.347656 549.679688 -6.375 C 549.617188 -6.40625 549.566406 -6.441406 549.503906 -6.472656 C 549.390625 -6.542969 549.363281 -6.675781 549.414062 -6.78125 C 549.480469 -6.894531 549.617188 -6.925781 549.722656 -6.871094 C 550.480469 -6.453125 551.171875 -5.960938 551.867188 -5.453125 C 551.9375 -5.40625 551.972656 -5.308594 551.945312 -5.230469 C 552.4375 -4.898438 552.933594 -4.550781 553.382812 -4.191406 C 553.480469 -4.117188 553.5 -3.960938 553.421875 -3.878906 C 553.40625 -3.875 553.410156 -3.859375 553.394531 -3.851562 C 556.195312 -1.675781 559.21875 1.28125 562.042969 4.453125 C 562.15625 4.464844 562.269531 4.535156 562.339844 4.636719 C 562.71875 5.148438 563.089844 5.648438 563.484375 6.117188 C 563.601562 6.238281 563.703125 6.382812 563.816406 6.503906 C 564.414062 7.191406 565.039062 7.851562 565.707031 8.476562 C 566.511719 8.625 567.351562 8.566406 568.175781 8.460938 C 569.101562 8.332031 570.015625 8.175781 570.925781 8.164062 C 578.121094 8.074219 583.996094 8.929688 590.253906 12.785156 C 590.96875 13.234375 594.953125 16.125 596.203125 17.714844 C 596.488281 18.0625 596.652344 18.382812 596.675781 18.605469 C 596.710938 18.808594 596.660156 18.96875 596.566406 19.109375 C 596.414062 19.34375 596.136719 19.527344 595.738281 19.667969 C 595.289062 19.824219 594.652344 19.902344 593.914062 19.945312 C 591.226562 20.054688 587.171875 19.429688 586.261719 19.242188 C 579.667969 17.867188 573.007812 15.425781 567.636719 11.332031 L 567.664062 11.359375 C 568.4375 12.398438 569.199219 13.457031 569.921875 14.550781 C 570.515625 15.433594 571.101562 16.339844 571.65625 17.257812 C 571.828125 17.554688 572.003906 17.851562 572.1875 18.164062 C 572.273438 18.316406 572.34375 18.46875 572.4375 18.632812 C 572.535156 18.8125 572.636719 18.996094 572.734375 19.175781 C 573.042969 19.75 573.347656 20.320312 573.636719 20.882812 C 574.3125 22.207031 574.976562 23.550781 575.609375 24.90625 C 575.914062 25.570312 576.21875 26.234375 576.515625 26.882812 C 576.628906 27.058594 576.746094 27.234375 576.863281 27.425781 C 576.898438 27.414062 576.917969 27.425781 576.957031 27.429688 C 589.730469 28.675781 601.765625 34.902344 608.0625 46.394531 C 608.417969 47.054688 610.902344 51.296875 611.875 53.375 C 612.164062 53.992188 612.300781 54.445312 612.300781 54.640625 C 612.296875 54.894531 612.1875 55.039062 612.039062 55.125 C 611.921875 55.203125 611.777344 55.253906 611.585938 55.214844 C 611.449219 55.1875 611.265625 55.125 611.074219 55.03125 C 610.878906 54.9375 610.675781 54.8125 610.535156 54.773438 C 609.585938 54.476562 608.679688 54.128906 607.71875 53.945312 C 604.679688 53.355469 602.109375 52.570312 599.363281 51.125 C 589.34375 45.839844 578.261719 31.074219 578.261719 31.074219 C 581.964844 40.566406 584.132812 50.449219 584.183594 60.730469 C 584.1875 60.746094 584.1875 60.746094 584.195312 60.761719 C 585.175781 63.628906 587.230469 66.027344 589.597656 68.191406 C 592.015625 70.394531 594.746094 72.363281 597.019531 74.257812 C 601.015625 77.59375 604.246094 81.660156 606.476562 86.367188 C 607.710938 88.980469 608.582031 91.683594 609.277344 94.503906 C 609.480469 95.347656 609.664062 96.179688 609.851562 97.027344 C 609.9375 97.375 610.003906 97.726562 610.074219 98.078125 C 610.078125 98.09375 610.179688 98.328125 610.210938 98.425781 C 610.242188 98.558594 610.234375 98.648438 610.210938 98.730469 C 610.179688 98.847656 610.105469 98.945312 610.015625 98.996094 C 609.929688 99.058594 609.804688 99.105469 609.632812 99.074219 C 609.417969 99.023438 609.164062 98.863281 608.914062 98.609375 C 608.539062 98.203125 608.144531 97.535156 607.894531 97.28125 C 606.769531 96.113281 605.453125 94.960938 604.132812 94.003906 C 601.675781 92.246094 599.347656 90.820312 597.367188 88.480469 C 592.839844 83.109375 590.9375 76.71875 588.101562 70.433594 C 586.988281 67.957031 585.476562 65.726562 584.132812 63.363281 C 584.089844 64.992188 583.976562 66.625 583.832031 68.269531 C 583.023438 76.859375 581.347656 83.890625 579.773438 90.277344 C 579.789062 90.328125 579.8125 90.390625 579.8125 90.445312 C 580.089844 94.234375 581.78125 97.332031 583.988281 100.164062 C 586.230469 103.054688 589.003906 105.652344 591.378906 108.355469 C 594.738281 112.179688 597.007812 117.820312 597.519531 122.835938 C 597.671875 124.359375 597.972656 127.332031 597.613281 128.875 C 597.621094 128.996094 597.636719 129.097656 597.644531 129.21875 C 597.652344 129.34375 597.5625 129.445312 597.445312 129.46875 C 597.320312 129.476562 597.21875 129.386719 597.195312 129.269531 C 597.09375 129.289062 596.992188 129.25 596.878906 129.183594 C 596.828125 129.144531 596.753906 129.082031 596.691406 128.960938 C 596.636719 128.855469 596.578125 128.625 596.503906 128.523438 C 596.324219 128.210938 596.101562 127.929688 595.910156 127.640625 C 595.320312 126.769531 594.644531 126.019531 593.945312 125.242188 C 591.835938 122.898438 589.253906 121.09375 587.582031 118.363281 C 584.550781 113.367188 584.140625 107.757812 582.65625 102.257812 C 581.789062 99.050781 580.089844 96.1875 579.101562 93.039062 C 578.730469 94.546875 578.367188 96.035156 578.050781 97.488281 C 575.265625 109.882812 574.472656 121.085938 584.167969 139.289062 Z M 567.5 9.714844 C 567.5 9.714844 567.511719 9.691406 567.511719 9.691406 C 567.472656 9.6875 567.457031 9.695312 567.421875 9.6875 Z M 591.183594 14.574219 C 590.484375 14.066406 589.917969 13.671875 589.703125 13.515625 C 583.605469 9.761719 577.871094 8.949219 570.867188 9.027344 C 570.597656 9.03125 570.320312 9.054688 570.042969 9.082031 C 570.480469 9.105469 570.925781 9.148438 571.355469 9.195312 C 572.875 9.328125 574.378906 9.433594 575.886719 9.695312 C 580.21875 10.441406 584.796875 11.425781 588.820312 13.246094 C 589.648438 13.621094 590.417969 14.125 591.183594 14.574219 Z M 593.144531 16.808594 C 591.828125 16.066406 590.429688 15.445312 589.035156 14.890625 C 585.78125 13.589844 582.4375 12.695312 579.042969 11.800781 C 575.785156 10.949219 572.261719 9.9375 568.820312 9.738281 C 569.804688 9.898438 570.804688 10.191406 571.769531 10.378906 C 573.40625 10.703125 575.042969 10.972656 576.664062 11.410156 C 578.765625 11.988281 580.839844 12.785156 582.894531 13.484375 C 585.351562 14.3125 587.800781 15.214844 590.28125 16 C 591.214844 16.261719 592.21875 16.46875 593.144531 16.808594 Z M 568.261719 10.667969 C 573.511719 14.605469 579.976562 16.957031 586.402344 18.300781 C 587.269531 18.480469 591.214844 19.09375 593.832031 18.988281 C 594.453125 18.96875 595.003906 18.902344 595.386719 18.769531 C 595.421875 18.757812 595.453125 18.746094 595.484375 18.734375 C 594.976562 18.769531 594.460938 18.679688 593.941406 18.679688 C 593.367188 18.683594 592.773438 18.78125 592.191406 18.753906 C 590.578125 18.652344 588.957031 18.125 587.386719 17.777344 C 586.175781 17.5 584.949219 17.320312 583.769531 16.976562 C 581.777344 16.402344 579.859375 15.582031 577.925781 14.824219 C 575.785156 13.976562 573.621094 13.171875 571.488281 12.25 C 570.382812 11.753906 569.339844 11.1875 568.261719 10.667969 Z M 595.207031 18.292969 C 595.09375 18.226562 594.960938 18.164062 594.855469 18.113281 C 593.902344 17.90625 592.921875 17.816406 591.972656 17.613281 C 591.023438 17.40625 590.101562 17.082031 589.15625 16.839844 C 588.128906 16.570312 587.078125 16.378906 586.0625 16.089844 C 583.824219 15.4375 581.632812 14.550781 579.421875 13.816406 C 576.097656 12.71875 572.726562 11.691406 569.355469 10.714844 C 570.117188 11.097656 570.882812 11.492188 571.664062 11.828125 C 573.773438 12.742188 575.9375 13.546875 578.082031 14.394531 C 579.992188 15.140625 581.894531 15.964844 583.882812 16.527344 C 585.058594 16.867188 586.289062 17.050781 587.476562 17.316406 C 589.015625 17.675781 590.613281 18.191406 592.207031 18.28125 C 592.773438 18.316406 593.351562 18.222656 593.925781 18.222656 C 594.351562 18.214844 594.789062 18.277344 595.207031 18.292969 Z M 593.40625 17.398438 C 592.375 16.96875 591.207031 16.75 590.140625 16.421875 C 587.660156 15.640625 585.214844 14.738281 582.753906 13.910156 C 580.699219 13.210938 578.644531 12.40625 576.546875 11.847656 C 574.945312 11.417969 573.324219 11.140625 571.691406 10.832031 C 571.195312 10.738281 570.699219 10.605469 570.195312 10.496094 C 573.34375 11.402344 576.480469 12.371094 579.578125 13.386719 C 581.78125 14.105469 583.953125 14.980469 586.207031 15.628906 C 587.222656 15.917969 588.257812 16.113281 589.285156 16.382812 C 590.214844 16.628906 591.132812 16.953125 592.078125 17.144531 C 592.507812 17.246094 592.964844 17.320312 593.40625 17.398438 Z M 592.894531 16.144531 C 592.339844 15.78125 591.765625 15.425781 591.191406 15.109375 C 590.335938 14.617188 589.515625 14.0625 588.621094 13.65625 C 584.640625 11.855469 580.101562 10.875 575.808594 10.132812 C 574.761719 9.960938 573.722656 9.859375 572.679688 9.753906 C 574.894531 10.183594 577.089844 10.78125 579.164062 11.328125 C 582.5625 12.222656 585.933594 13.144531 589.199219 14.441406 C 590.453125 14.953125 591.703125 15.503906 592.894531 16.144531 Z M 563.878906 51.722656 C 564.574219 49.492188 564.863281 47.027344 565.480469 44.839844 C 567.804688 36.582031 569.5 28.058594 569.839844 19.464844 C 568.09375 26.34375 566.957031 33.472656 565.574219 40.421875 C 564.808594 44.25 563.71875 47.855469 563.878906 51.722656 Z M 567.933594 45.242188 C 568.023438 45.03125 568.121094 44.800781 568.203125 44.574219 C 568.261719 44.429688 568.320312 44.28125 568.375 44.136719 C 571.070312 37.144531 572.984375 27.199219 570.59375 19.617188 C 570.816406 22.476562 570.542969 25.347656 570.453125 28.226562 C 570.246094 33.761719 569.765625 39.785156 567.933594 45.242188 Z M 563.46875 52.90625 C 563.488281 52.863281 563.5 52.839844 563.519531 52.796875 C 563.078125 48.492188 564.304688 44.554688 565.148438 40.335938 C 566.390625 34.117188 567.421875 27.761719 568.886719 21.570312 C 566.238281 28.941406 563.710938 36.71875 563.339844 44.511719 C 563.175781 47.328125 562.894531 50.128906 563.46875 52.90625 Z M 564.402344 51.574219 C 568.855469 44.847656 569.730469 36.035156 569.980469 28.210938 C 570.058594 25.855469 570.261719 23.511719 570.214844 21.164062 C 569.726562 29.230469 568.097656 37.214844 565.921875 44.972656 C 565.328125 47.078125 565.035156 49.421875 564.402344 51.574219 Z M 561.71875 49.324219 C 561.523438 47.6875 561.613281 45.9375 561.609375 44.488281 C 561.558594 40.066406 563.472656 31.410156 565.34375 27.25 C 566.035156 25.734375 566.761719 24.265625 567.441406 22.773438 C 566.5625 23.796875 565.675781 24.804688 565.09375 25.867188 C 563.253906 29.230469 561.335938 36.542969 561.164062 42.996094 C 561.117188 45.289062 561.269531 47.472656 561.71875 49.324219 Z M 562.820312 51.769531 C 562.519531 49.367188 562.746094 46.921875 562.863281 44.480469 C 563.222656 37.121094 565.464844 29.765625 567.960938 22.773438 C 567.25 24.328125 566.488281 25.847656 565.777344 27.417969 C 563.925781 31.519531 562.03125 40.082031 562.085938 44.464844 C 562.097656 45.734375 562.019531 47.210938 562.132812 48.660156 C 562.195312 49.765625 562.390625 50.84375 562.820312 51.769531 Z M 577.835938 28.410156 C 577.835938 28.410156 577.832031 28.394531 577.832031 28.394531 L 577.777344 28.398438 Z M 606.039062 44.859375 C 605.480469 43.980469 604.886719 43.148438 604.246094 42.332031 C 599.75 38.023438 592.519531 34.523438 587.636719 32.089844 C 584.558594 30.566406 581.980469 28.882812 578.535156 28.617188 C 585.605469 30.433594 591.382812 35.066406 597.460938 38.875 C 600.523438 40.761719 603.566406 42.441406 606.039062 44.859375 Z M 609.175781 50.304688 C 608.265625 48.667969 607.371094 47.136719 607.171875 46.773438 L 607.167969 46.757812 C 604.511719 43.457031 600.859375 41.523438 597.21875 39.261719 C 591.652344 35.792969 586.359375 31.621094 580.101562 29.558594 C 582.761719 30.867188 585.453125 32.207031 587.9375 33.777344 C 592.539062 36.6875 596.65625 40.320312 600.945312 43.679688 C 604.054688 46.105469 606.777344 47.753906 609.175781 50.304688 Z M 607.871094 52.996094 C 602.996094 50.179688 599 46.023438 594.769531 42.320312 C 589.65625 37.832031 584.238281 33.917969 578.632812 30.085938 C 578.75 30.261719 578.878906 30.429688 579.015625 30.617188 C 579.664062 30.925781 580.316406 31.363281 580.960938 31.871094 C 582.621094 33.191406 584.21875 34.945312 585.453125 35.914062 C 589.46875 39.046875 593.390625 42.171875 597.101562 45.664062 C 599.726562 48.152344 601.976562 50.699219 605.105469 52.367188 C 605.976562 52.601562 606.871094 52.808594 607.796875 52.988281 C 607.832031 52.992188 607.847656 52.988281 607.871094 52.996094 Z M 610.140625 53.640625 C 601.113281 45.804688 592.496094 37.542969 582.007812 31.6875 C 581.097656 31.179688 580.242188 30.582031 579.367188 30.027344 C 584.816406 33.769531 590.082031 37.613281 595.082031 41.980469 C 599.804688 46.117188 604.214844 50.796875 609.898438 53.5625 C 609.976562 53.589844 610.058594 53.613281 610.140625 53.640625 Z M 602.335938 40.097656 C 597.222656 34.640625 590.417969 31.066406 583.0625 29.3125 C 584.65625 29.976562 586.179688 30.84375 587.851562 31.675781 C 592.023438 33.765625 597.894531 36.609375 602.335938 40.097656 Z M 611.019531 53.796875 C 610.886719 53.523438 610.738281 53.199219 610.558594 52.832031 C 610.457031 52.652344 610.375 52.464844 610.277344 52.285156 C 607.574219 48.695312 604.410156 46.929688 600.6875 44.019531 C 596.417969 40.671875 592.308594 37.054688 587.722656 34.136719 C 585.492188 32.730469 583.097656 31.519531 580.710938 30.328125 C 581.21875 30.652344 581.726562 30.980469 582.261719 31.277344 C 593.320312 37.488281 602.332031 46.367188 611.941406 54.585938 Z M 603.335938 51.820312 C 600.917969 50.1875 598.980469 48.070312 596.777344 45.972656 C 593.085938 42.476562 589.167969 39.363281 585.175781 36.242188 C 583.941406 35.277344 582.34375 33.523438 580.679688 32.203125 C 580.382812 31.964844 580.089844 31.746094 579.789062 31.546875 C 582.074219 33.992188 584.625 36.164062 587.03125 38.480469 C 591.78125 43.109375 596.4375 47.722656 601.996094 51.320312 C 602.4375 51.503906 602.886719 51.671875 603.335938 51.820312 Z M 599.398438 50.09375 C 594.8125 46.765625 590.8125 42.804688 586.707031 38.84375 C 584.984375 37.1875 583.1875 35.589844 581.460938 33.917969 C 586.445312 40.351562 592.398438 46.316406 599.398438 50.09375 Z M 562.382812 82.421875 C 564.378906 79.199219 567.378906 76.6875 569.769531 73.777344 C 574.226562 68.390625 577.789062 62.296875 580.117188 55.699219 C 580.554688 54.4375 581.203125 53.15625 581.660156 51.847656 C 581.671875 51.773438 581.703125 51.707031 581.710938 51.632812 C 581.625 51.84375 581.53125 52.039062 581.441406 52.246094 C 580.777344 53.785156 580.042969 55.277344 579.3125 56.785156 C 576.402344 62.742188 572.917969 68.183594 568.867188 73.445312 C 566.699219 76.28125 563.894531 79.101562 562.382812 82.421875 Z M 574.898438 70.574219 C 575.589844 69.832031 576.222656 69.074219 576.773438 68.34375 C 579.121094 65.144531 580.796875 59.816406 581.597656 55.9375 C 581.800781 54.96875 581.988281 53.972656 582.132812 52.9375 C 581.742188 54.652344 581.179688 56.332031 580.675781 57.976562 C 579.335938 62.257812 577.480469 66.71875 574.898438 70.574219 Z M 563.910156 74.976562 C 564.691406 73.558594 565.535156 72.171875 566.433594 70.835938 C 568.660156 67.5 571.492188 64.453125 574.039062 61.363281 C 575.625 59.433594 577.136719 57.492188 578.527344 55.410156 C 577.683594 56.332031 576.835938 57.253906 576.046875 58.226562 C 574.144531 60.59375 572.421875 63.109375 570.441406 65.410156 C 569.101562 66.96875 567.496094 68.28125 566.148438 69.863281 C 565.855469 70.414062 565.578125 70.957031 565.316406 71.546875 C 564.804688 72.695312 564.324219 73.847656 563.910156 74.976562 Z M 562.503906 79.640625 C 562.738281 79.074219 562.992188 78.519531 563.289062 78.023438 C 564.140625 76.507812 565.226562 75.089844 566.191406 73.644531 C 569.042969 69.320312 572.148438 65.210938 575.285156 61.089844 C 576.511719 59.464844 577.621094 57.804688 578.652344 56.085938 C 577.320312 58.019531 575.90625 59.835938 574.410156 61.664062 C 571.863281 64.753906 569.066406 67.789062 566.832031 71.109375 C 565.441406 73.1875 564.179688 75.382812 563.046875 77.640625 C 562.839844 78.285156 562.664062 78.957031 562.503906 79.640625 Z M 562.28125 81.617188 C 563.863281 78.539062 566.460938 75.859375 568.511719 73.195312 C 572.53125 67.960938 576.011719 62.558594 578.890625 56.609375 C 578.976562 56.4375 579.058594 56.265625 579.148438 56.109375 C 578.074219 57.917969 576.921875 59.660156 575.632812 61.363281 C 572.515625 65.496094 569.40625 69.585938 566.546875 73.894531 C 565.597656 75.335938 564.507812 76.738281 563.671875 78.246094 C 563.121094 79.246094 562.648438 80.414062 562.28125 81.617188 Z M 570.191406 75.132812 C 571.003906 74.386719 571.835938 73.628906 572.628906 72.871094 C 576.199219 68.546875 578.589844 63.054688 580.210938 57.871094 C 580.316406 57.511719 580.429688 57.167969 580.554688 56.800781 C 580.480469 57.003906 580.417969 57.1875 580.34375 57.375 C 578.085938 63.714844 574.492188 69.875 570.191406 75.132812 Z M 567.195312 68.082031 C 568.179688 67.09375 569.199219 66.167969 570.105469 65.117188 C 571.757812 63.214844 573.226562 61.144531 574.757812 59.160156 C 571.9375 62.023438 569.289062 64.773438 567.195312 68.082031 Z M 561.898438 84.273438 C 562.636719 83.105469 563.410156 81.976562 564.277344 80.917969 C 564.277344 80.917969 564.257812 80.910156 564.257812 80.910156 C 564.171875 80.8125 564.15625 80.675781 564.253906 80.589844 C 565.859375 78.917969 567.632812 77.476562 569.132812 75.699219 C 572.554688 71.679688 575.550781 67.050781 577.84375 62.203125 C 575.738281 66.449219 573.128906 70.4375 570.097656 74.09375 C 567.433594 77.3125 564.015625 80.0625 562.089844 83.847656 C 562.027344 83.980469 561.96875 84.125 561.898438 84.273438 Z M 608.480469 96.539062 C 608.117188 95.804688 607.71875 95.082031 607.242188 94.425781 C 606.558594 93.5 605.660156 92.773438 605.039062 91.808594 C 601.417969 86.15625 597.703125 80.484375 593.621094 75.15625 C 592.394531 73.539062 591.074219 72.011719 589.734375 70.492188 C 589.554688 70.285156 589.355469 70.070312 589.160156 69.867188 C 590 70.9375 590.625 72.167969 591.359375 73.292969 C 592.90625 75.671875 594.488281 78.003906 596.035156 80.386719 C 598.585938 84.3125 601.164062 88.304688 604.101562 91.957031 C 605.238281 93.367188 606.648438 94.632812 607.898438 95.953125 C 608.113281 96.164062 608.289062 96.355469 608.480469 96.539062 Z M 604.46875 93.0625 C 604.230469 92.789062 603.996094 92.53125 603.773438 92.25 C 600.828125 88.582031 598.25 84.574219 595.675781 80.636719 C 594.128906 78.257812 592.542969 75.925781 590.996094 73.542969 C 590.621094 72.976562 590.28125 72.363281 589.914062 71.773438 C 590.535156 72.988281 591.125 74.214844 591.804688 75.394531 C 593.519531 78.359375 595.488281 81.183594 597.234375 84.140625 C 598.683594 86.589844 600.113281 89.621094 602.3125 91.558594 C 603.027344 92.0625 603.734375 92.550781 604.46875 93.0625 Z M 605.183594 85.902344 C 603.035156 81.636719 600.023438 77.9375 596.355469 74.867188 C 594.960938 73.703125 593.425781 72.535156 591.882812 71.300781 C 592.59375 72.054688 593.304688 72.8125 594.027344 73.542969 C 596.355469 75.851562 598.636719 78.171875 600.847656 80.609375 C 602.40625 82.304688 603.890625 84.042969 605.183594 85.902344 Z M 608.5625 95.703125 L 608.507812 95.4375 C 608.285156 94.746094 608.023438 94.046875 607.71875 93.382812 C 607.003906 91.839844 605.984375 90.566406 605.066406 89.167969 C 603.871094 87.378906 602.753906 85.511719 601.449219 83.78125 C 600.355469 82.335938 599.113281 81.03125 598 79.59375 C 596.191406 77.234375 594.289062 74.957031 592.304688 72.765625 C 592.886719 73.460938 593.4375 74.164062 593.992188 74.882812 C 598.078125 80.230469 601.800781 85.917969 605.4375 91.5625 C 606.054688 92.511719 606.953125 93.238281 607.613281 94.15625 C 607.984375 94.652344 608.296875 95.1875 608.574219 95.734375 Z M 600.34375 90.078125 C 598.988281 88.292969 597.917969 86.195312 596.851562 84.382812 C 595.105469 81.425781 593.136719 78.601562 591.421875 75.636719 C 591.203125 75.265625 591 74.886719 590.789062 74.492188 C 592.710938 79.179688 594.597656 83.769531 597.984375 87.785156 C 598.71875 88.65625 599.515625 89.398438 600.34375 90.078125 Z M 607.691406 92.320312 C 607.34375 91.167969 606.964844 90.027344 606.535156 88.90625 C 604.941406 85.96875 602.804688 83.398438 600.519531 80.902344 C 598.695312 78.902344 596.84375 76.988281 594.9375 75.074219 C 596.117188 76.453125 597.253906 77.863281 598.371094 79.320312 C 599.476562 80.746094 600.726562 82.0625 601.824219 83.507812 C 603.125 85.242188 604.257812 87.101562 605.445312 88.910156 C 606.203125 90.058594 607.027344 91.136719 607.691406 92.320312 Z M 595.773438 118.75 C 594.78125 115.136719 592.972656 111.542969 590.625 108.867188 C 588.808594 106.796875 586.761719 104.785156 584.894531 102.660156 C 585.121094 103.011719 585.363281 103.339844 585.613281 103.644531 C 589.171875 108.046875 593.160156 112.640625 595.417969 117.890625 C 595.535156 118.171875 595.65625 118.46875 595.773438 118.75 Z M 591.199219 121.277344 C 590.476562 119.917969 589.972656 118.425781 589.421875 116.949219 C 588.703125 114.980469 587.839844 113.023438 587.246094 111.011719 C 586.910156 109.894531 586.59375 108.730469 586.238281 107.601562 C 585.605469 106.351562 584.96875 105.089844 584.320312 103.847656 C 584.324219 103.863281 584.335938 103.894531 584.339844 103.910156 C 585.132812 106.125 585.550781 108.414062 586.175781 110.667969 C 587.070312 113.957031 588.269531 117.300781 590.121094 120.183594 C 590.484375 120.558594 590.839844 120.917969 591.199219 121.277344 Z M 588.273438 117.765625 C 587.1875 115.527344 586.394531 113.152344 585.753906 110.796875 C 585.191406 108.71875 584.777344 106.605469 584.105469 104.566406 C 585.113281 109.105469 585.78125 113.652344 588.273438 117.765625 Z M 596.691406 124.324219 C 596.652344 123.851562 596.617188 123.4375 596.574219 123.058594 C 596.195312 121.359375 595.710938 119.703125 595.007812 118.050781 C 592.789062 112.914062 588.925781 108.421875 585.414062 104.109375 C 585.535156 104.355469 585.640625 104.605469 585.753906 104.871094 C 586.359375 105.839844 587 106.800781 587.621094 107.765625 C 589.464844 110.578125 591.597656 113.257812 593.238281 116.214844 C 594.636719 118.789062 595.886719 121.503906 596.691406 124.324219 Z M 596.8125 126.933594 L 596.808594 126.878906 C 596.140625 123.207031 594.632812 119.703125 592.832031 116.445312 C 591.214844 113.496094 589.085938 110.835938 587.246094 108.019531 C 587.003906 107.640625 586.746094 107.261719 586.492188 106.886719 C 586.550781 107.0625 586.613281 107.238281 586.660156 107.417969 C 588.660156 111.359375 590.628906 115.3125 592.671875 119.222656 C 593.308594 120.433594 593.902344 121.675781 594.574219 122.875 C 595.339844 124.203125 596.183594 125.539062 596.804688 126.96875 Z M 595.933594 126.164062 C 595.390625 125.117188 594.769531 124.113281 594.199219 123.09375 C 593.515625 121.902344 592.921875 120.65625 592.277344 119.429688 C 590.621094 116.265625 589.019531 113.0625 587.410156 109.878906 C 587.507812 110.222656 587.605469 110.546875 587.707031 110.886719 C 588.292969 112.886719 589.15625 114.839844 589.878906 116.8125 C 590.609375 118.8125 591.273438 120.875 592.554688 122.539062 C 593.25 123.195312 593.925781 123.851562 594.566406 124.5625 C 595.019531 125.085938 595.488281 125.601562 595.933594 126.164062 Z M 573.863281 117.179688 C 573.882812 117.136719 573.894531 117.113281 573.914062 117.070312 C 573.988281 116.867188 574.054688 116.648438 574.128906 116.441406 C 574.136719 116.421875 574.148438 116.398438 574.160156 116.378906 C 574.164062 116.339844 574.167969 116.300781 574.179688 116.28125 C 574.027344 116.566406 573.871094 116.835938 573.695312 117.113281 C 573.734375 117.117188 573.773438 117.121094 573.808594 117.125 C 573.832031 117.136719 573.851562 117.148438 573.863281 117.179688 Z M 566.59375 135.847656 C 568.242188 133.625 569.8125 131.394531 571.027344 128.859375 C 571.988281 126.824219 572.492188 124.515625 573.070312 122.363281 C 573.429688 120.984375 573.761719 119.5625 574.054688 118.132812 L 574.027344 118.214844 C 573.640625 119.316406 573.210938 120.398438 572.777344 121.480469 C 572.519531 122.179688 572.246094 122.882812 571.988281 123.582031 C 570.746094 126.914062 569.710938 130.125 568.050781 133.28125 C 567.589844 134.121094 567.101562 134.992188 566.59375 135.847656 Z M 557.785156 143.609375 C 559.101562 138.746094 561.351562 134.183594 564.21875 130.011719 C 566.011719 127.4375 567.898438 124.863281 569.78125 122.34375 C 570.433594 121.492188 571.097656 120.613281 571.675781 119.695312 C 571.324219 120.085938 570.957031 120.464844 570.582031 120.832031 C 570.253906 121.230469 569.925781 121.632812 569.601562 122.03125 C 566.960938 125.117188 564.632812 128.472656 562.492188 131.902344 C 561.34375 133.753906 560.03125 135.59375 559.234375 137.625 C 558.851562 138.902344 558.515625 140.203125 558.195312 141.496094 C 558.050781 142.210938 557.914062 142.902344 557.785156 143.609375 Z M 558.855469 141.644531 C 560.800781 137.238281 563.664062 133.253906 566.464844 129.25 C 568.167969 126.828125 569.648438 124.179688 571.078125 121.589844 C 571.296875 121.1875 571.523438 120.804688 571.757812 120.402344 C 571.25 121.152344 570.695312 121.882812 570.144531 122.613281 C 568.253906 125.117188 566.371094 127.6875 564.578125 130.265625 C 562.164062 133.792969 560.195312 137.613281 558.855469 141.644531 Z M 557.953125 145.378906 C 558.664062 144.074219 559.449219 142.832031 560.207031 141.550781 C 562.164062 138.214844 564.03125 134.878906 566.105469 131.613281 C 567.527344 129.363281 568.980469 127.046875 570.179688 124.675781 C 570.816406 123.417969 571.417969 122.152344 572.03125 120.878906 C 571.855469 121.191406 571.675781 121.503906 571.5 121.816406 C 570.054688 124.417969 568.578125 127.078125 566.847656 129.527344 C 563.316406 134.519531 559.695312 139.523438 557.953125 145.378906 Z M 557.671875 146.890625 C 558.507812 145.9375 559.363281 144.996094 560.109375 143.945312 C 562.546875 140.445312 564.484375 136.636719 566.5625 132.921875 C 568.664062 129.179688 570.6875 125.304688 572.328125 121.3125 L 572.351562 121.234375 C 571.773438 122.457031 571.179688 123.683594 570.582031 124.894531 C 569.367188 127.289062 567.898438 129.609375 566.484375 131.875 C 564.410156 135.140625 562.558594 138.472656 560.597656 141.804688 C 559.597656 143.460938 558.527344 145.125 557.671875 146.890625 Z M 560.300781 134.566406 C 560.894531 133.589844 561.527344 132.632812 562.125 131.675781 C 563.890625 128.855469 565.777344 126.085938 567.847656 123.484375 C 566.863281 124.417969 565.878906 125.40625 564.96875 126.492188 C 562.894531 128.933594 561.425781 131.667969 560.300781 134.566406 Z M 562.726562 140.707031 C 563.023438 140.371094 563.316406 140.035156 563.613281 139.699219 C 565.027344 137.578125 566.480469 135.261719 567.632812 133.066406 C 568.679688 131.074219 569.476562 129.042969 570.234375 126.988281 C 569.199219 129.066406 568.085938 131.121094 566.945312 133.148438 C 565.542969 135.660156 564.195312 138.226562 562.726562 140.707031 Z M 587.953125 161.378906 C 587.191406 159.242188 586.570312 157.042969 586.078125 154.8125 C 585.335938 151.4375 584.761719 148.089844 584.222656 144.644531 C 583.992188 143.164062 583.753906 141.652344 583.355469 140.199219 C 583.523438 142.433594 583.425781 144.722656 583.6875 147.070312 C 584.214844 151.988281 585.664062 156.910156 587.953125 161.378906 Z M 594.261719 162.082031 C 593.433594 156.925781 591.710938 151.777344 589.175781 147.378906 C 587.957031 145.277344 586.539062 143.316406 585.117188 141.339844 C 586.160156 143.304688 587.140625 145.292969 588.117188 147.28125 C 590.496094 152.148438 592.796875 156.949219 594.261719 162.082031 Z M 594.703125 166.027344 C 594.699219 166.011719 594.710938 165.992188 594.703125 165.976562 C 593.464844 159.386719 590.640625 153.492188 587.703125 147.476562 C 586.765625 145.566406 585.820312 143.675781 584.820312 141.785156 C 584.882812 142.011719 584.929688 142.246094 584.96875 142.464844 C 585.828125 144.261719 586.789062 146.042969 587.609375 147.832031 C 589.625 152.21875 591.347656 156.703125 593.050781 161.230469 C 593.707031 162.957031 594.273438 164.476562 594.703125 166.027344 Z M 589.949219 164.839844 C 588.515625 160.769531 587.464844 156.570312 586.667969 152.386719 C 586.238281 150.121094 585.382812 147.714844 585 145.429688 C 584.910156 144.871094 584.828125 144.324219 584.753906 143.796875 C 584.628906 143.445312 584.507812 143.09375 584.367188 142.746094 C 584.472656 143.355469 584.570312 143.949219 584.660156 144.5625 C 585.199219 148.011719 585.773438 151.355469 586.511719 154.714844 C 587.234375 158.027344 588.242188 161.222656 589.625 164.324219 C 589.703125 164.441406 589.757812 164.546875 589.828125 164.648438 C 589.867188 164.707031 589.910156 164.78125 589.949219 164.839844 Z M 594.875 174.65625 C 594.125 168.328125 592.035156 162.125 589.832031 156.210938 C 588.625 152.960938 587.453125 149.75 586.128906 146.558594 C 586.195312 146.75 586.238281 146.929688 586.304688 147.125 C 587.304688 150.140625 588.238281 153.128906 589.109375 156.195312 C 590.667969 161.757812 593.0625 169.089844 594.875 174.65625 Z M 593.207031 170.992188 C 591.644531 166.148438 589.902344 160.683594 588.664062 156.3125 C 587.800781 153.265625 586.867188 150.277344 585.875 147.273438 C 585.828125 147.144531 585.785156 147.019531 585.742188 146.890625 C 586.171875 148.691406 586.769531 150.5625 587.097656 152.328125 C 588.050781 157.332031 589.394531 162.417969 591.3125 167.210938 C 591.988281 168.425781 592.617188 169.710938 593.207031 170.992188 Z M 594.925781 171.96875 C 594.902344 170.761719 594.84375 169.5625 594.816406 168.355469 C 594.324219 165.964844 593.566406 163.898438 592.628906 161.414062 C 590.960938 156.980469 589.28125 152.570312 587.316406 148.273438 C 588.339844 150.855469 589.296875 153.441406 590.261719 156.0625 C 592.152344 161.167969 593.984375 166.53125 594.925781 171.96875 Z M 594.925781 171.96875 " fill-opacity="1" fill-rule="evenodd" />
        </g>
      </g>
    </g>
  </g>
</svg>
